<?xml version="1.0" encoding="utf-8"?>
<!-- Generator: Adobe Illustrator 15.0.0, SVG Export Plug-In . SVG Version: 6.00 Build 0)  -->
<!DOCTYPE svg PUBLIC "-//W3C//DTD SVG 1.1//EN" "http://www.w3.org/Graphics/SVG/1.1/DTD/svg11.dtd">
<svg version="1.1" id="Layer_1_copy_3" xmlns="http://www.w3.org/2000/svg" xmlns:xlink="http://www.w3.org/1999/xlink" x="0px"
	 y="0px" width="256px" height="256px" viewBox="0 0 256 256" enable-background="new 0 0 256 256" xml:space="preserve">
<polygon fill="#545554" points="239.254,192.771 126.754,256.771 14.254,192.771 14.254,64.771 126.754,0.772 239.254,64.771 "/>
<circle fill="#B0AFB0" cx="126.754" cy="128.772" r="76"/>
<path fill="#545554" d="M85.873,108.124c0.545-6.17,1.938-11.74,4.177-16.71c2.239-4.968,5.161-9.201,8.765-12.696
	c3.604-3.494,7.795-6.184,12.573-8.068c4.778-1.884,10.007-2.826,15.687-2.826c6.006,0,11.494,0.86,16.464,2.58
	c4.969,1.72,9.228,4.124,12.778,7.208c3.549,3.086,6.307,6.758,8.272,11.017c1.967,4.26,2.949,8.902,2.949,13.925
	c0,5.789-1.311,11.058-3.932,15.809c-2.457,4.806-7.1,10.021-13.925,15.645c-2.949,2.457-5.324,4.629-7.127,6.512
	c-1.802,1.885-3.003,3.51-3.604,4.875c-1.257,2.676-1.884,8.6-1.884,17.773h-21.216c0.055-6.279,0.369-11.604,0.942-15.973
	c0.573-4.367,1.487-7.834,2.744-10.402c2.457-5.023,6.907-10.211,13.352-15.563c2.785-2.347,4.982-4.354,6.594-6.021
	c1.61-1.665,2.826-3.14,3.646-4.423c0.818-1.282,1.323-2.484,1.515-3.604c0.191-1.119,0.287-2.334,0.287-3.645
	c0-2.458-0.438-4.71-1.311-6.758c-0.874-2.048-2.089-3.836-3.646-5.365c-1.556-1.528-3.413-2.716-5.569-3.563
	c-2.158-0.846-4.547-1.27-7.168-1.27c-10.32,0-16.573,7.181-18.757,21.542H85.873z M138.705,191.264h-23.508v-23.18h23.508V191.264z
	"/>
</svg>
