<?xml version="1.0" encoding="utf-8"?>
<!-- Generator: Adobe Illustrator 15.0.0, SVG Export Plug-In . SVG Version: 6.00 Build 0)  -->
<!DOCTYPE svg PUBLIC "-//W3C//DTD SVG 1.1//EN" "http://www.w3.org/Graphics/SVG/1.1/DTD/svg11.dtd">
<svg version="1.1" xmlns="http://www.w3.org/2000/svg" xmlns:xlink="http://www.w3.org/1999/xlink" x="0px" y="0px" width="256px"
	 height="256px" viewBox="0 0 256 256" enable-background="new 0 0 256 256" xml:space="preserve">
<g id="Layer_1" display="none">
	<polygon display="inline" fill="#AE2324" points="240.5,192 128,256 15.5,192 15.5,63.999 128,0 240.5,63.999 	"/>
	<circle display="inline" fill="#FFFFFF" cx="128" cy="128" r="76"/>
	<polygon display="inline" fill="#AE2324" points="179.266,90.877 165.123,76.735 128,113.858 90.877,76.735 76.735,90.877 
		113.857,128 76.735,165.123 90.877,179.266 128,142.143 165.123,179.266 179.266,165.123 142.143,128 	"/>
</g>
<g id="Layer_1_copy" display="none">
	<polygon display="inline" fill="#41B649" points="-13.499,192.771 -125.999,256.771 -238.499,192.771 -238.499,64.771 
		-125.999,0.772 -13.499,64.771 	"/>
	<circle display="inline" fill="#FFFFFF" cx="-125.999" cy="128.772" r="76"/>
	<polygon display="inline" fill="#41B649" points="-125.999,69.055 -108.293,104.932 -68.7,110.685 -97.35,138.611 -90.586,178.045 
		-125.999,159.426 -161.412,178.045 -154.648,138.611 -183.298,110.685 -143.706,104.932 	"/>
</g>
<g id="Layer_1_copy_2">
	<polygon fill="#F6862A" points="240.008,192 127.508,256 15.008,192 15.008,63.999 127.508,0 240.008,63.999 	"/>
	<circle fill="#FFFFFF" cx="127.508" cy="128" r="76"/>
	<path display="none" fill="#F6862A" d="M86.627,107.352c0.545-6.17,1.938-11.74,4.177-16.71c2.239-4.968,5.161-9.201,8.765-12.696
		c3.604-3.494,7.795-6.184,12.573-8.068c4.778-1.884,10.007-2.826,15.687-2.826c6.006,0,11.494,0.86,16.464,2.58
		c4.969,1.72,9.228,4.124,12.778,7.208c3.549,3.086,6.307,6.758,8.272,11.017c1.967,4.26,2.949,8.902,2.949,13.925
		c0,5.789-1.311,11.058-3.932,15.809c-2.457,4.806-7.1,10.021-13.925,15.646c-2.949,2.457-5.324,4.628-7.127,6.512
		c-1.802,1.884-3.003,3.51-3.604,4.874c-1.257,2.676-1.884,8.601-1.884,17.774h-21.216c0.055-6.279,0.369-11.604,0.942-15.973
		c0.573-4.368,1.487-7.835,2.744-10.402c2.457-5.023,6.907-10.211,13.352-15.563c2.785-2.347,4.982-4.354,6.594-6.021
		c1.61-1.665,2.826-3.14,3.646-4.423c0.818-1.282,1.323-2.484,1.515-3.604c0.191-1.119,0.287-2.334,0.287-3.645
		c0-2.458-0.438-4.71-1.311-6.758c-0.874-2.048-2.089-3.836-3.646-5.365c-1.556-1.528-3.413-2.716-5.569-3.563
		c-2.158-0.846-4.547-1.27-7.168-1.27c-10.32,0-16.573,7.181-18.757,21.542H86.627z M139.459,190.492h-23.508v-23.181h23.508
		V190.492z"/>
</g>
<g id="Layer_4">
	<g>
		<g id="Layer_1_copy_3">
			<polygon fill="#F68629" points="240.008,191.614 127.508,255.614 15.007,191.614 15.007,63.614 127.508,-0.386 240.008,63.614 
							"/>
			<circle fill="#FFFFFF" cx="127.508" cy="127.614" r="76"/>
			<path fill="#F68629" d="M139.459,190.106h-23.51v-23.181h23.51V190.106z"/>
			<path fill="#F68629" d="M139.459,162.106h-23.51l-2.817-94.931h29.875L139.459,162.106z"/>
		</g>
	</g>
	<g>
		<path fill="#F68629" stroke="#FFFFFF" stroke-width="4" stroke-miterlimit="10" d="M198.008,212.759h-69.37l0.042-65.303
			c0-15.905,15.133-34.389,34.643-34.389c19.508,0,34.639,18.484,34.639,34.389L198.008,212.759z M141.229,142.21
			c19.542,0,24.481-0.295,44.089-0.295c-2.854-8.688-11.828-17.145-21.996-17.145C153.037,124.771,143.978,133.419,141.229,142.21z"
			/>
		<g>
			<polygon fill="#FFFFFF" points="164.221,167.308 164.221,167.308 152.038,192.891 176.402,192.891 			"/>
			<path fill="#FFFFFF" d="M174.276,170.042c0,5.555-4.5,10.055-10.056,10.055c-5.555,0-10.053-4.5-10.053-10.055
				c0-5.551,4.498-10.051,10.053-10.051C169.776,159.991,174.276,164.491,174.276,170.042z"/>
		</g>
	</g>
	<g display="none">
		<path display="inline" fill="#F68629" stroke="#FFFFFF" stroke-width="4" stroke-miterlimit="10" d="M171,185.585H88.075
			l0.05-78.062c0-19.013,18.09-41.109,41.412-41.109c23.319,0,41.407,22.096,41.407,41.109L171,185.585z M103.127,101.251
			c23.36,0,29.265-0.353,52.704-0.353c-3.412-10.386-14.14-20.495-26.294-20.495C117.242,80.404,106.413,90.743,103.127,101.251z"/>
		<g display="inline">
			<polygon fill="#FFFFFF" points="130.611,131.254 130.611,131.254 116.048,161.835 145.173,161.835 			"/>
			<path fill="#FFFFFF" d="M142.632,134.521c0,6.641-5.38,12.02-12.021,12.02s-12.018-5.379-12.018-12.02
				c0-6.635,5.377-12.014,12.018-12.014S142.632,127.887,142.632,134.521z"/>
		</g>
	</g>
</g>
</svg>
