<?xml version="1.0" encoding="utf-8"?>
<!-- Generator: Adobe Illustrator 15.0.0, SVG Export Plug-In . SVG Version: 6.00 Build 0)  -->
<!DOCTYPE svg PUBLIC "-//W3C//DTD SVG 1.1//EN" "http://www.w3.org/Graphics/SVG/1.1/DTD/svg11.dtd">
<svg version="1.1" id="Layer_1" xmlns="http://www.w3.org/2000/svg" xmlns:xlink="http://www.w3.org/1999/xlink" x="0px" y="0px"
	 width="256px" height="256px" viewBox="0 0 256 256" enable-background="new 0 0 256 256" xml:space="preserve">
<g id="Layer_1_1_" display="none">
	<polygon display="inline" fill="#AE2324" points="240.5,192 128,256 15.5,192 15.5,63.999 128,0 240.5,63.999 	"/>
	<circle display="inline" fill="#FFFFFF" cx="128" cy="128" r="76"/>
	<polygon display="inline" fill="#AE2324" points="179.266,90.877 165.123,76.735 128,113.858 90.877,76.735 76.735,90.877 
		113.857,128 76.735,165.123 90.877,179.266 128,142.143 165.123,179.266 179.266,165.123 142.143,128 	"/>
</g>
<g id="Layer_1_copy" display="none">
	<polygon display="inline" fill="#41B649" points="-13.499,192.771 -125.999,256.771 -238.499,192.771 -238.499,64.771 
		-125.999,0.772 -13.499,64.771 	"/>
	<circle display="inline" fill="#FFFFFF" cx="-125.999" cy="128.772" r="76"/>
	<polygon display="inline" fill="#41B649" points="-125.999,69.055 -108.293,104.932 -68.7,110.685 -97.35,138.611 -90.586,178.045 
		-125.999,159.426 -161.412,178.045 -154.648,138.611 -183.298,110.685 -143.706,104.932 	"/>
</g>
<g id="Layer_1_copy_2" display="none">
	<polygon display="inline" fill="#F6862A" points="495.486,192 382.986,256 270.486,192 270.486,63.999 382.986,0 495.486,63.999 	
		"/>
	<circle display="inline" fill="#FFFFFF" cx="382.986" cy="128" r="76"/>
	<path display="inline" fill="#F6862A" d="M342.105,107.352c0.545-6.17,1.938-11.74,4.177-16.71
		c2.239-4.968,5.161-9.201,8.765-12.696c3.604-3.494,7.795-6.184,12.573-8.068c4.778-1.884,10.007-2.826,15.687-2.826
		c6.007,0,11.494,0.86,16.465,2.58c4.969,1.72,9.228,4.124,12.777,7.208c3.549,3.086,6.308,6.758,8.272,11.017
		c1.967,4.26,2.948,8.902,2.948,13.925c0,5.789-1.311,11.058-3.932,15.809c-2.457,4.806-7.1,10.021-13.925,15.646
		c-2.949,2.457-5.324,4.629-7.127,6.513c-1.802,1.884-3.003,3.51-3.604,4.874c-1.257,2.676-1.884,8.602-1.884,17.773h-21.216
		c0.055-6.278,0.369-11.604,0.942-15.973c0.572-4.367,1.486-7.835,2.743-10.402c2.457-5.022,6.907-10.21,13.353-15.563
		c2.785-2.347,4.981-4.354,6.594-6.021c1.61-1.665,2.826-3.14,3.646-4.423c0.817-1.282,1.322-2.484,1.515-3.604
		c0.191-1.119,0.287-2.334,0.287-3.645c0-2.458-0.438-4.71-1.312-6.758c-0.874-2.048-2.089-3.836-3.646-5.365
		c-1.556-1.528-3.413-2.716-5.569-3.563c-2.158-0.846-4.547-1.27-7.168-1.27c-10.319,0-16.573,7.181-18.757,21.542H342.105z
		 M394.938,190.492H371.43v-23.182h23.508V190.492z"/>
</g>
<g id="Layer_1_copy_3">
	<polygon fill="#41B649" points="240.5,192 128,256 15.5,192 15.5,64 128,0 240.5,64 	"/>
	<circle fill="#FFFFFF" cx="128" cy="128" r="76"/>
	<path fill="#41B649" d="M139.951,190.492h-23.508v-23.18h23.508V190.492z"/>
	<path fill="#41B649" d="M139.951,162.492h-23.508l-2.818-94.93H143.5L139.951,162.492z"/>
</g>
</svg>
